<mxfile host="app.diagrams.net" modified="2023-12-01T01:38:53.431Z" agent="Mozilla/5.0 (Windows NT 10.0; Win64; x64) AppleWebKit/537.36 (KHTML, like Gecko) Chrome/119.0.0.0 Safari/537.36 Edg/119.0.0.0" etag="NRj1WMM4Q05T7qZTt_nU" version="22.1.5" type="github" pages="2">
  <diagram name="class_diagram" id="lzC8CjFDTDfUdUaJtmp2">
    <mxGraphModel dx="1346" dy="294" grid="1" gridSize="10" guides="1" tooltips="1" connect="1" arrows="1" fold="1" page="1" pageScale="1" pageWidth="850" pageHeight="1100" math="0" shadow="0">
      <root>
        <mxCell id="0" />
        <mxCell id="1" parent="0" />
        <mxCell id="O4EfFNLDTCsv2pYqPQwu-1" value="" style="rounded=0;whiteSpace=wrap;html=1;movable=0;resizable=0;rotatable=0;deletable=0;editable=0;locked=1;connectable=0;" parent="1" vertex="1">
          <mxGeometry x="-830" width="2520" height="2190" as="geometry" />
        </mxCell>
        <mxCell id="O4EfFNLDTCsv2pYqPQwu-2" value="Payroll System Class Diagram" style="text;html=1;strokeColor=none;fillColor=none;align=center;verticalAlign=middle;whiteSpace=wrap;rounded=0;fontSize=32;" parent="1" vertex="1">
          <mxGeometry x="-760" y="60" width="580" height="30" as="geometry" />
        </mxCell>
        <mxCell id="O4EfFNLDTCsv2pYqPQwu-50" style="edgeStyle=orthogonalEdgeStyle;rounded=0;orthogonalLoop=1;jettySize=auto;html=1;entryX=0.5;entryY=0;entryDx=0;entryDy=0;elbow=vertical;exitX=1;exitY=0;exitDx=0;exitDy=0;curved=1;" parent="1" source="O4EfFNLDTCsv2pYqPQwu-6" target="O4EfFNLDTCsv2pYqPQwu-36" edge="1">
          <mxGeometry relative="1" as="geometry">
            <Array as="points">
              <mxPoint x="40" y="200" />
            </Array>
          </mxGeometry>
        </mxCell>
        <mxCell id="6wYpwhB3bSleKPoEnr_i-13" value="has" style="edgeLabel;html=1;align=center;verticalAlign=middle;resizable=0;points=[];" vertex="1" connectable="0" parent="O4EfFNLDTCsv2pYqPQwu-50">
          <mxGeometry x="0.3138" y="-41" relative="1" as="geometry">
            <mxPoint as="offset" />
          </mxGeometry>
        </mxCell>
        <mxCell id="O4EfFNLDTCsv2pYqPQwu-6" value="Employee" style="swimlane;fontStyle=1;align=center;verticalAlign=top;childLayout=stackLayout;horizontal=1;startSize=26;horizontalStack=0;resizeParent=1;resizeParentMax=0;resizeLast=0;collapsible=1;marginBottom=0;whiteSpace=wrap;html=1;" parent="1" vertex="1">
          <mxGeometry x="-780" y="200" width="510" height="310" as="geometry" />
        </mxCell>
        <mxCell id="O4EfFNLDTCsv2pYqPQwu-7" value="- information: Information&lt;br&gt;- position: Position&lt;br&gt;- bankID: BankID&lt;br&gt;- salaryDesc: SalaryDescription" style="text;strokeColor=none;fillColor=none;align=left;verticalAlign=top;spacingLeft=4;spacingRight=4;overflow=hidden;rotatable=0;points=[[0,0.5],[1,0.5]];portConstraint=eastwest;whiteSpace=wrap;html=1;" parent="O4EfFNLDTCsv2pYqPQwu-6" vertex="1">
          <mxGeometry y="26" width="510" height="134" as="geometry" />
        </mxCell>
        <mxCell id="O4EfFNLDTCsv2pYqPQwu-8" value="" style="line;strokeWidth=1;fillColor=none;align=left;verticalAlign=middle;spacingTop=-1;spacingLeft=3;spacingRight=3;rotatable=0;labelPosition=right;points=[];portConstraint=eastwest;strokeColor=inherit;" parent="O4EfFNLDTCsv2pYqPQwu-6" vertex="1">
          <mxGeometry y="160" width="510" height="20" as="geometry" />
        </mxCell>
        <mxCell id="O4EfFNLDTCsv2pYqPQwu-9" value="+ displayInformation(): String&lt;br&gt;&lt;div&gt;+ updateInformation(Information newInfo): void&lt;/div&gt;+ viewSalaryDescription(): String&lt;br&gt;+ viewBankIDs(): String&lt;br&gt;+&amp;nbsp;viewMonthlyHoursBreakdown(Byte month, Short year, ArrayList attendances): String&lt;br&gt;+ viewMonthlyGrossSalaryBreakdown(Byte month, Short year): String&lt;br&gt;+ viewMonthlyNetSalary(Byte month, Short year): String&lt;br&gt;+ logout(): void" style="text;strokeColor=none;fillColor=none;align=left;verticalAlign=top;spacingLeft=4;spacingRight=4;overflow=hidden;rotatable=0;points=[[0,0.5],[1,0.5]];portConstraint=eastwest;whiteSpace=wrap;html=1;" parent="O4EfFNLDTCsv2pYqPQwu-6" vertex="1">
          <mxGeometry y="180" width="510" height="130" as="geometry" />
        </mxCell>
        <mxCell id="O4EfFNLDTCsv2pYqPQwu-10" value="SalaryDescription" style="swimlane;fontStyle=1;align=center;verticalAlign=top;childLayout=stackLayout;horizontal=1;startSize=26;horizontalStack=0;resizeParent=1;resizeParentMax=0;resizeLast=0;collapsible=1;marginBottom=0;whiteSpace=wrap;html=1;" parent="1" vertex="1">
          <mxGeometry x="640" y="650" width="200" height="210" as="geometry" />
        </mxCell>
        <mxCell id="O4EfFNLDTCsv2pYqPQwu-29" value="- basicSalary: Integer&lt;br&gt;- riceSubsidy: Integer&lt;br&gt;- phoneAllowance: Integer&lt;br&gt;- clothingAllowance: Integer&lt;br&gt;- grossSemiMonthlyRate: Integer&lt;br&gt;- hourlyRate: Float" style="text;strokeColor=none;fillColor=none;align=left;verticalAlign=top;spacingLeft=4;spacingRight=4;overflow=hidden;rotatable=0;points=[[0,0.5],[1,0.5]];portConstraint=eastwest;whiteSpace=wrap;html=1;" parent="O4EfFNLDTCsv2pYqPQwu-10" vertex="1">
          <mxGeometry y="26" width="200" height="94" as="geometry" />
        </mxCell>
        <mxCell id="O4EfFNLDTCsv2pYqPQwu-12" value="" style="line;strokeWidth=1;fillColor=none;align=left;verticalAlign=middle;spacingTop=-1;spacingLeft=3;spacingRight=3;rotatable=0;labelPosition=right;points=[];portConstraint=eastwest;strokeColor=inherit;" parent="O4EfFNLDTCsv2pYqPQwu-10" vertex="1">
          <mxGeometry y="120" width="200" height="90" as="geometry" />
        </mxCell>
        <mxCell id="O4EfFNLDTCsv2pYqPQwu-48" style="edgeStyle=orthogonalEdgeStyle;rounded=0;orthogonalLoop=1;jettySize=auto;html=1;entryX=0.5;entryY=0;entryDx=0;entryDy=0;" parent="1" source="O4EfFNLDTCsv2pYqPQwu-14" target="O4EfFNLDTCsv2pYqPQwu-45" edge="1">
          <mxGeometry relative="1" as="geometry" />
        </mxCell>
        <mxCell id="O4EfFNLDTCsv2pYqPQwu-14" value="Position" style="swimlane;fontStyle=1;align=center;verticalAlign=top;childLayout=stackLayout;horizontal=1;startSize=26;horizontalStack=0;resizeParent=1;resizeParentMax=0;resizeLast=0;collapsible=1;marginBottom=0;whiteSpace=wrap;html=1;" parent="1" vertex="1">
          <mxGeometry x="160" y="650" width="180" height="210" as="geometry" />
        </mxCell>
        <mxCell id="O4EfFNLDTCsv2pYqPQwu-15" value="- status: StatusEnum&lt;br&gt;- position: String&lt;span style=&quot;white-space: pre;&quot;&gt;&lt;br&gt;&lt;/span&gt;- immediateSupervisor: String" style="text;strokeColor=none;fillColor=none;align=left;verticalAlign=top;spacingLeft=4;spacingRight=4;overflow=hidden;rotatable=0;points=[[0,0.5],[1,0.5]];portConstraint=eastwest;whiteSpace=wrap;html=1;" parent="O4EfFNLDTCsv2pYqPQwu-14" vertex="1">
          <mxGeometry y="26" width="180" height="94" as="geometry" />
        </mxCell>
        <mxCell id="O4EfFNLDTCsv2pYqPQwu-16" value="" style="line;strokeWidth=1;fillColor=none;align=left;verticalAlign=middle;spacingTop=-1;spacingLeft=3;spacingRight=3;rotatable=0;labelPosition=right;points=[];portConstraint=eastwest;strokeColor=inherit;" parent="O4EfFNLDTCsv2pYqPQwu-14" vertex="1">
          <mxGeometry y="120" width="180" height="90" as="geometry" />
        </mxCell>
        <mxCell id="O4EfFNLDTCsv2pYqPQwu-18" value="BankID" style="swimlane;fontStyle=1;align=center;verticalAlign=top;childLayout=stackLayout;horizontal=1;startSize=26;horizontalStack=0;resizeParent=1;resizeParentMax=0;resizeLast=0;collapsible=1;marginBottom=0;whiteSpace=wrap;html=1;" parent="1" vertex="1">
          <mxGeometry x="400" y="650" width="180" height="210" as="geometry" />
        </mxCell>
        <mxCell id="O4EfFNLDTCsv2pYqPQwu-19" value="- pagibig: Long&amp;nbsp;&lt;br&gt;- philhealth: Long&lt;br&gt;- sss: Long&lt;br&gt;- tin: Long" style="text;strokeColor=none;fillColor=none;align=left;verticalAlign=top;spacingLeft=4;spacingRight=4;overflow=hidden;rotatable=0;points=[[0,0.5],[1,0.5]];portConstraint=eastwest;whiteSpace=wrap;html=1;" parent="O4EfFNLDTCsv2pYqPQwu-18" vertex="1">
          <mxGeometry y="26" width="180" height="94" as="geometry" />
        </mxCell>
        <mxCell id="O4EfFNLDTCsv2pYqPQwu-20" value="" style="line;strokeWidth=1;fillColor=none;align=left;verticalAlign=middle;spacingTop=-1;spacingLeft=3;spacingRight=3;rotatable=0;labelPosition=right;points=[];portConstraint=eastwest;strokeColor=inherit;" parent="O4EfFNLDTCsv2pYqPQwu-18" vertex="1">
          <mxGeometry y="120" width="180" height="90" as="geometry" />
        </mxCell>
        <mxCell id="O4EfFNLDTCsv2pYqPQwu-36" value="Information" style="swimlane;fontStyle=1;align=center;verticalAlign=top;childLayout=stackLayout;horizontal=1;startSize=26;horizontalStack=0;resizeParent=1;resizeParentMax=0;resizeLast=0;collapsible=1;marginBottom=0;whiteSpace=wrap;html=1;" parent="1" vertex="1">
          <mxGeometry x="-50" y="650" width="180" height="210" as="geometry" />
        </mxCell>
        <mxCell id="O4EfFNLDTCsv2pYqPQwu-37" value="- employeeID: Integer&lt;br style=&quot;border-color: var(--border-color);&quot;&gt;- lastName: String&lt;br style=&quot;border-color: var(--border-color);&quot;&gt;&lt;span style=&quot;border-color: var(--border-color);&quot;&gt;- firstName: String&lt;br style=&quot;border-color: var(--border-color);&quot;&gt;&lt;/span&gt;- birthday: Date&lt;span style=&quot;border-color: var(--border-color);&quot;&gt;&lt;br style=&quot;border-color: var(--border-color);&quot;&gt;&lt;/span&gt;- address: String&lt;span style=&quot;border-color: var(--border-color);&quot;&gt;&lt;br style=&quot;border-color: var(--border-color);&quot;&gt;&lt;/span&gt;- phoneNumber: String" style="text;strokeColor=none;fillColor=none;align=left;verticalAlign=top;spacingLeft=4;spacingRight=4;overflow=hidden;rotatable=0;points=[[0,0.5],[1,0.5]];portConstraint=eastwest;whiteSpace=wrap;html=1;" parent="O4EfFNLDTCsv2pYqPQwu-36" vertex="1">
          <mxGeometry y="26" width="180" height="94" as="geometry" />
        </mxCell>
        <mxCell id="O4EfFNLDTCsv2pYqPQwu-38" value="" style="line;strokeWidth=1;fillColor=none;align=left;verticalAlign=middle;spacingTop=-1;spacingLeft=3;spacingRight=3;rotatable=0;labelPosition=right;points=[];portConstraint=eastwest;strokeColor=inherit;" parent="O4EfFNLDTCsv2pYqPQwu-36" vertex="1">
          <mxGeometry y="120" width="180" height="90" as="geometry" />
        </mxCell>
        <mxCell id="O4EfFNLDTCsv2pYqPQwu-45" value="StatusEnum" style="swimlane;fontStyle=1;align=center;verticalAlign=top;childLayout=stackLayout;horizontal=1;startSize=26;horizontalStack=0;resizeParent=1;resizeParentMax=0;resizeLast=0;collapsible=1;marginBottom=0;whiteSpace=wrap;html=1;" parent="1" vertex="1">
          <mxGeometry x="160" y="920" width="180" height="120" as="geometry" />
        </mxCell>
        <mxCell id="O4EfFNLDTCsv2pYqPQwu-46" value="- PROBATIONARY: String&lt;br&gt;- REGULAR: String" style="text;strokeColor=none;fillColor=none;align=left;verticalAlign=top;spacingLeft=4;spacingRight=4;overflow=hidden;rotatable=0;points=[[0,0.5],[1,0.5]];portConstraint=eastwest;whiteSpace=wrap;html=1;" parent="O4EfFNLDTCsv2pYqPQwu-45" vertex="1">
          <mxGeometry y="26" width="180" height="94" as="geometry" />
        </mxCell>
        <mxCell id="O4EfFNLDTCsv2pYqPQwu-51" style="edgeStyle=orthogonalEdgeStyle;rounded=0;orthogonalLoop=1;jettySize=auto;html=1;entryX=0.5;entryY=0;entryDx=0;entryDy=0;elbow=vertical;exitX=1;exitY=0;exitDx=0;exitDy=0;curved=1;" parent="1" source="O4EfFNLDTCsv2pYqPQwu-6" target="O4EfFNLDTCsv2pYqPQwu-14" edge="1">
          <mxGeometry relative="1" as="geometry">
            <mxPoint x="-490" y="210" as="sourcePoint" />
            <mxPoint x="-290" y="380" as="targetPoint" />
            <Array as="points">
              <mxPoint x="250" y="200" />
            </Array>
          </mxGeometry>
        </mxCell>
        <mxCell id="6wYpwhB3bSleKPoEnr_i-12" value="has" style="edgeLabel;html=1;align=center;verticalAlign=middle;resizable=0;points=[];" vertex="1" connectable="0" parent="O4EfFNLDTCsv2pYqPQwu-51">
          <mxGeometry x="0.4451" y="-68" relative="1" as="geometry">
            <mxPoint as="offset" />
          </mxGeometry>
        </mxCell>
        <mxCell id="O4EfFNLDTCsv2pYqPQwu-52" style="edgeStyle=orthogonalEdgeStyle;rounded=0;orthogonalLoop=1;jettySize=auto;html=1;entryX=0.5;entryY=0;entryDx=0;entryDy=0;elbow=vertical;exitX=1;exitY=0;exitDx=0;exitDy=0;curved=1;" parent="1" source="O4EfFNLDTCsv2pYqPQwu-6" target="O4EfFNLDTCsv2pYqPQwu-18" edge="1">
          <mxGeometry relative="1" as="geometry">
            <mxPoint x="-490" y="210" as="sourcePoint" />
            <mxPoint x="-80" y="380" as="targetPoint" />
            <Array as="points">
              <mxPoint x="490" y="200" />
            </Array>
          </mxGeometry>
        </mxCell>
        <mxCell id="6wYpwhB3bSleKPoEnr_i-11" value="has" style="edgeLabel;html=1;align=center;verticalAlign=middle;resizable=0;points=[];" vertex="1" connectable="0" parent="O4EfFNLDTCsv2pYqPQwu-52">
          <mxGeometry x="0.5555" y="-99" relative="1" as="geometry">
            <mxPoint as="offset" />
          </mxGeometry>
        </mxCell>
        <mxCell id="O4EfFNLDTCsv2pYqPQwu-53" style="edgeStyle=orthogonalEdgeStyle;rounded=0;orthogonalLoop=1;jettySize=auto;html=1;entryX=0.5;entryY=0;entryDx=0;entryDy=0;elbow=vertical;curved=1;exitX=1;exitY=0;exitDx=0;exitDy=0;" parent="1" target="O4EfFNLDTCsv2pYqPQwu-10" edge="1" source="O4EfFNLDTCsv2pYqPQwu-6">
          <mxGeometry relative="1" as="geometry">
            <mxPoint x="-500" y="200" as="sourcePoint" />
            <mxPoint x="160" y="380" as="targetPoint" />
            <Array as="points">
              <mxPoint x="740" y="200" />
            </Array>
          </mxGeometry>
        </mxCell>
        <mxCell id="6wYpwhB3bSleKPoEnr_i-9" value="has" style="edgeLabel;html=1;align=center;verticalAlign=middle;resizable=0;points=[];" vertex="1" connectable="0" parent="O4EfFNLDTCsv2pYqPQwu-53">
          <mxGeometry x="0.6348" y="-127" relative="1" as="geometry">
            <mxPoint as="offset" />
          </mxGeometry>
        </mxCell>
        <mxCell id="6wYpwhB3bSleKPoEnr_i-1" value="Attendance" style="swimlane;fontStyle=1;align=center;verticalAlign=top;childLayout=stackLayout;horizontal=1;startSize=26;horizontalStack=0;resizeParent=1;resizeParentMax=0;resizeLast=0;collapsible=1;marginBottom=0;whiteSpace=wrap;html=1;" vertex="1" parent="1">
          <mxGeometry x="930" y="650" width="180" height="210" as="geometry" />
        </mxCell>
        <mxCell id="6wYpwhB3bSleKPoEnr_i-2" value="- employeeID: Integer&lt;br style=&quot;border-color: var(--border-color);&quot;&gt;- lastName: String&lt;br style=&quot;border-color: var(--border-color);&quot;&gt;&lt;span style=&quot;border-color: var(--border-color);&quot;&gt;- firstName: String&lt;br&gt;- Date: date&lt;br style=&quot;border-color: var(--border-color);&quot;&gt;&lt;/span&gt;- timeIN:&amp;nbsp;&lt;span style=&quot;border-color: var(--border-color);&quot;&gt;&lt;br style=&quot;border-color: var(--border-color);&quot;&gt;&lt;/span&gt;- timeOUT: String" style="text;strokeColor=none;fillColor=none;align=left;verticalAlign=top;spacingLeft=4;spacingRight=4;overflow=hidden;rotatable=0;points=[[0,0.5],[1,0.5]];portConstraint=eastwest;whiteSpace=wrap;html=1;" vertex="1" parent="6wYpwhB3bSleKPoEnr_i-1">
          <mxGeometry y="26" width="180" height="94" as="geometry" />
        </mxCell>
        <mxCell id="6wYpwhB3bSleKPoEnr_i-3" value="" style="line;strokeWidth=1;fillColor=none;align=left;verticalAlign=middle;spacingTop=-1;spacingLeft=3;spacingRight=3;rotatable=0;labelPosition=right;points=[];portConstraint=eastwest;strokeColor=inherit;" vertex="1" parent="6wYpwhB3bSleKPoEnr_i-1">
          <mxGeometry y="120" width="180" height="90" as="geometry" />
        </mxCell>
        <mxCell id="6wYpwhB3bSleKPoEnr_i-7" value="Use" style="endArrow=open;endSize=12;dashed=1;html=1;rounded=0;exitX=1;exitY=0;exitDx=0;exitDy=0;entryX=0.5;entryY=0;entryDx=0;entryDy=0;edgeStyle=orthogonalEdgeStyle;curved=1;" edge="1" parent="1" source="O4EfFNLDTCsv2pYqPQwu-6" target="6wYpwhB3bSleKPoEnr_i-1">
          <mxGeometry x="0.6897" y="-180" width="160" relative="1" as="geometry">
            <mxPoint x="800" y="380" as="sourcePoint" />
            <mxPoint x="960" y="380" as="targetPoint" />
            <Array as="points">
              <mxPoint x="1020" y="200" />
            </Array>
            <mxPoint y="-1" as="offset" />
          </mxGeometry>
        </mxCell>
        <mxCell id="6wYpwhB3bSleKPoEnr_i-14" value="Authentication" style="swimlane;fontStyle=1;align=center;verticalAlign=top;childLayout=stackLayout;horizontal=1;startSize=26;horizontalStack=0;resizeParent=1;resizeParentMax=0;resizeLast=0;collapsible=1;marginBottom=0;whiteSpace=wrap;html=1;" vertex="1" parent="1">
          <mxGeometry x="-780" y="990" width="510" height="310" as="geometry" />
        </mxCell>
        <mxCell id="6wYpwhB3bSleKPoEnr_i-15" value="- username: String&lt;br&gt;- password: String" style="text;strokeColor=none;fillColor=none;align=left;verticalAlign=top;spacingLeft=4;spacingRight=4;overflow=hidden;rotatable=0;points=[[0,0.5],[1,0.5]];portConstraint=eastwest;whiteSpace=wrap;html=1;" vertex="1" parent="6wYpwhB3bSleKPoEnr_i-14">
          <mxGeometry y="26" width="510" height="134" as="geometry" />
        </mxCell>
        <mxCell id="6wYpwhB3bSleKPoEnr_i-16" value="" style="line;strokeWidth=1;fillColor=none;align=left;verticalAlign=middle;spacingTop=-1;spacingLeft=3;spacingRight=3;rotatable=0;labelPosition=right;points=[];portConstraint=eastwest;strokeColor=inherit;" vertex="1" parent="6wYpwhB3bSleKPoEnr_i-14">
          <mxGeometry y="160" width="510" height="20" as="geometry" />
        </mxCell>
        <mxCell id="6wYpwhB3bSleKPoEnr_i-17" value="+ verify : void" style="text;strokeColor=none;fillColor=none;align=left;verticalAlign=top;spacingLeft=4;spacingRight=4;overflow=hidden;rotatable=0;points=[[0,0.5],[1,0.5]];portConstraint=eastwest;whiteSpace=wrap;html=1;" vertex="1" parent="6wYpwhB3bSleKPoEnr_i-14">
          <mxGeometry y="180" width="510" height="130" as="geometry" />
        </mxCell>
        <mxCell id="6wYpwhB3bSleKPoEnr_i-20" value="1" style="endArrow=open;html=1;endSize=12;startArrow=diamondThin;startSize=14;startFill=1;edgeStyle=orthogonalEdgeStyle;align=left;verticalAlign=bottom;rounded=0;exitX=0.494;exitY=1.001;exitDx=0;exitDy=0;exitPerimeter=0;" edge="1" parent="1">
          <mxGeometry x="-0.8773" y="8" relative="1" as="geometry">
            <mxPoint x="-526.06" y="510.13" as="sourcePoint" />
            <mxPoint x="-527.9767441860465" y="990" as="targetPoint" />
            <Array as="points">
              <mxPoint x="-526" y="750" />
              <mxPoint x="-528" y="750" />
            </Array>
            <mxPoint as="offset" />
          </mxGeometry>
        </mxCell>
      </root>
    </mxGraphModel>
  </diagram>
  <diagram id="uF_jlYutIZqOCdZ_tyLl" name="use_case">
    <mxGraphModel dx="1042" dy="617" grid="1" gridSize="10" guides="1" tooltips="1" connect="1" arrows="1" fold="1" page="1" pageScale="1" pageWidth="850" pageHeight="1100" math="0" shadow="0">
      <root>
        <mxCell id="0" />
        <mxCell id="1" parent="0" />
      </root>
    </mxGraphModel>
  </diagram>
</mxfile>
